<svg id="pie" xmlns="http://www.w3.org/2000/svg" viewBox="0 0 291.23 291.23"><defs><style>.cls-1,.cls-3{fill:none;}.cls-1{stroke:#58595b;}.cls-1,.cls-2,.cls-3{stroke-miterlimit:10;}.cls-1,.cls-2{stroke-width:5px;}.cls-2{fill:#fa0052;}.cls-2,.cls-3{stroke:#fa0052;}.cls-3{stroke-width:10px;}</style></defs><title>pie hover icon</title><path class="cls-1" d="M325.78,128.18A140.32,140.32,0,0,0,216,75.39V216Z" transform="translate(-70.39 -70.39)"/><path class="cls-1" d="M216,75.39a140.61,140.61,0,0,0,0,281.23V75.39Z" transform="translate(-70.39 -70.39)"/><path class="cls-1" d="M216,216V356.61A140.58,140.58,0,0,0,325.78,128.18Z" transform="translate(-70.39 -70.39)"/><path class="cls-2" d="M216,75.39a140.61,140.61,0,0,0,0,281.23V75.39Z" transform="translate(-70.39 -70.39)"/><path class="cls-2" d="M216,216V356.61A140.58,140.58,0,0,0,325.78,128.18Z" transform="translate(-70.39 -70.39)"/><circle class="cls-3" cx="145.61" cy="145.61" r="140.61"/></svg>